#!OML:ASF H:\Martial Arts Walks\Project 1\Capture day 1\Session 1\male.ASF
:FULLY-SPECIFIED
:DEGREES
1143
root 0.578737 12.6016 36.3274 16.7964 -24.9428 -17.2596
lowerback 7.5241 0.95123 5.93978
upperback -3.27074 2.19112 4.32307
thorax -7.65198 0.884707 0.928836
lowerneck -3.95988 6.1566 1.31659
upperneck 5.75156 7.98877 2.47956
head 2.44402 4.07573 0.8268
rclavicle 5.6107e-014 3.65764e-014
rhumerus -78.5739 20.8132 -97.1532
rradius 108.613
rwrist -60.8977
rhand 3.85673 -20.226
rfingers 7.12502
rthumb 29.2789 -47.9415
lclavicle 5.6107e-014 3.65764e-014
lhumerus 55.6567 17.6152 83.9295
lradius 15.4342
lwrist -67.5578
lhand -26.8208 37.2514
lfingers 7.12502
lthumb -0.246996 67.231
rfemur 13.9599 -6.96856 10.9645
rtibia 30.2891
rfoot -22.2021 -31.0784
rtoes -30.7678
lfemur -80.9796 33.9847 -9.18851
ltibia 84.5798
lfoot -11.2242 -12.138
ltoes 3.77008
1144
root 0.57855 12.6014 36.327 16.7937 -24.951 -17.243
lowerback 7.54729 0.954856 5.91967
upperback -3.2779 2.19618 4.31556
thorax -7.67333 0.887492 0.931061
lowerneck -3.97354 6.1513 1.32509
upperneck 5.75642 7.9817 2.46425
head 2.44923 4.07204 0.821095
rclavicle 5.47155e-014 2.46493e-014
rhumerus -78.5611 20.809 -97.1506
rradius 108.597
rwrist -60.9051
rhand 3.88883 -20.2561
rfingers 7.12502
rthumb 29.3096 -47.9662
lclavicle 5.47155e-014 2.46493e-014
lhumerus 55.6308 17.5972 83.8918
lradius 15.44
lwrist -67.5786
lhand -26.8239 37.2429
lfingers 7.12502
lthumb -0.249977 67.2225
rfemur 13.934 -6.9461 10.9613
rtibia 30.3239
rfoot -22.2021 -31.1097
rtoes -30.7598
lfemur -80.9785 33.969 -9.19637
ltibia 84.5748
lfoot -11.2172 -12.1149
ltoes 3.73531
1145
root 0.578202 12.601 36.3265 16.7917 -24.957 -17.2337
lowerback 7.57422 0.954066 5.89921
upperback -3.28395 2.19588 4.31331
thorax -7.69606 0.887783 0.939743
lowerneck -3.98741 6.15103 1.33576
upperneck 5.75866 7.98134 2.4477
head 2.4537 4.07168 0.814796
rclavicle 3.49364e-014 2.06736e-014
rhumerus -78.555 20.8169 -97.1554
rradius 108.586
rwrist -60.9028
rhand 3.92577 -20.2705
rfingers 7.12502
rthumb 29.3448 -47.9744
lclavicle 3.49364e-014 2.06736e-014
lhumerus 55.604 17.5919 83.8503
lradius 15.4467
lwrist -67.5851
lhand -26.8273 37.2314
lfingers 7.12502
lthumb -0.25325 67.211
rfemur 13.9071 -6.92975 10.9622
rtibia 30.367
rfoot -22.2085 -31.1383
rtoes -30.7573
lfemur -80.9794 33.9589 -9.19788
ltibia 84.5703
lfoot -11.2072 -12.0987
ltoes 3.73787
1146
root 0.577698 12.6005 36.3263 16.7885 -24.9652 -17.2258
lowerback 7.59922 0.956757 5.8801
upperback -3.28972 2.20022 4.31197
thorax -7.71725 0.890342 0.948015
lowerneck -3.99259 6.14951 1.33876
upperneck 5.75509 7.97963 2.43867
head 2.45399 4.07062 0.811533
rclavicle 3.18552e-014 -7.95139e-016
rhumerus -78.5555 20.8179 -97.1578
rradius 108.579
rwrist -60.8892
rhand 3.96332 -20.2749
rfingers 7.12502
rthumb 29.3807 -47.9726
lclavicle 3.18552e-014 -7.95139e-016
lhumerus 55.5801 17.5822 83.8219
lradius 15.4508
lwrist -67.5815
lhand -26.8218 37.2244
lfingers 7.12502
lthumb -0.248 67.204
rfemur 13.8806 -6.91634 10.9603
rtibia 30.416
rfoot -22.2226 -31.1617
rtoes -30.7588
lfemur -80.9767 33.9539 -9.19694
ltibia 84.5659
lfoot -11.1992 -12.0835
ltoes 3.73701
1147
root 0.577098 12.6005 36.3252 16.7671 -24.9818 -17.2014
lowerback 7.64339 0.959714 5.83539
upperback -3.29129 2.20358 4.3083
thorax -7.74575 0.893579 0.967872
lowerneck -4.00333 6.15024 1.34487
upperneck 5.75173 7.98055 2.43054
head 2.45545 4.07099 0.808361
rclavicle 2.9122e-014 -5.56597e-015
rhumerus -78.5528 20.8224 -97.1627
rradius 108.571
rwrist -60.8666
rhand 3.99779 -20.2638
rfingers 7.12502
rthumb 29.4136 -47.9557
lclavicle 2.9122e-014 -5.56597e-015
lhumerus 55.5589 17.5707 83.7831
lradius 15.4557
lwrist -67.5507
lhand -26.8069 37.2173
lfingers 7.12502
lthumb -0.233612 67.1969
rfemur 13.8594 -6.8948 10.9429
rtibia 30.469
rfoot -22.2399 -31.1838
rtoes -30.7651
lfemur -80.9544 33.9502 -9.20671
ltibia 84.5542
lfoot -11.1925 -12.0672
ltoes 3.73288
1148
root 0.576417 12.6008 36.3241 16.7245 -25.0132 -17.1567
lowerback 7.70112 0.964549 5.76218
upperback -3.28868 2.20715 4.30144
thorax -7.77834 0.898288 0.999913
lowerneck -4.0097 6.15371 1.35086
upperneck 5.74725 7.98504 2.42577
head 2.45555 4.07321 0.806169
rclavicle -3.64273e-014 5.88403e-014
rhumerus -78.5518 20.8327 -97.1705
rradius 108.564
rwrist -60.8398
rhand 4.02729 -20.2447
rfingers 7.12502
rthumb 29.4418 -47.9316
lclavicle -3.64273e-014 5.88403e-014
lhumerus 55.5386 17.5612 83.7395
lradius 15.4588
lwrist -67.4988
lhand -26.7892 37.2227
lfingers 7.12502
lthumb -0.216481 67.2023
rfemur 13.8472 -6.86501 10.8997
rtibia 30.524
rfoot -22.2589 -31.2013
rtoes -30.7719
lfemur -80.9049 33.9501 -9.22789
ltibia 84.539
lfoot -11.1947 -12.0444
ltoes 3.67535
1149
root 0.575788 12.6012 36.3229 16.6825 -25.0505 -17.1177
lowerback 7.75708 0.976996 5.69693
upperback -3.28673 2.22152 4.29393
thorax -7.81012 0.907875 1.02535
lowerneck -4.00454 6.15129 1.34863
upperneck 5.74073 7.98179 2.43222
head 2.45208 4.07167 0.808046
rclavicle -5.07895e-014 -2.78299e-014
rhumerus -78.5546 20.8284 -97.1721
rradius 108.557
rwrist -60.8152
rhand 4.05786 -20.2286
rfingers 7.12502
rthumb 29.4709 -47.9104
lclavicle -5.07895e-014 -2.78299e-014
lhumerus 55.5244 17.5425 83.7205
lradius 15.458
lwrist -67.4498
lhand -26.7695 37.225
lfingers 7.12502
lthumb -0.197419 67.2047
rfemur 13.8327 -6.8281 10.8607
rtibia 30.5803
rfoot -22.2792 -31.2163
rtoes -30.7813
lfemur -80.8495 33.9564 -9.2423
ltibia 84.522
lfoot -11.1981 -12.0201
ltoes 3.60005
